<?xml version="1.0" standalone="no"?>
<!DOCTYPE svg PUBLIC "-//W3C//DTD SVG 20010904//EN"
 "http://www.w3.org/TR/2001/REC-SVG-20010904/DTD/svg10.dtd">
<svg version="1.0" xmlns="http://www.w3.org/2000/svg"
 width="204.000000pt" height="192.000000pt" viewBox="0 0 204.000000 192.000000"
 preserveAspectRatio="xMidYMid meet">

<g transform="translate(0.000000,192.000000) scale(0.100000,-0.100000)"
fill="#000000" stroke="none">
<path d="M634 1425 c-70 -42 -74 -60 -74 -321 0 -259 4 -275 82 -351 79 -76
351 -293 375 -299 28 -8 65 15 183 115 47 40 115 97 151 126 87 70 125 117
138 171 6 24 11 134 11 250 0 191 -2 211 -21 251 -26 54 -78 83 -147 83 -60 0
-107 -29 -139 -85 -22 -38 -23 -49 -23 -287 0 -211 -2 -249 -16 -262 -12 -13
-38 -16 -122 -16 -59 0 -114 5 -122 10 -13 8 -16 53 -20 274 -5 249 -6 266
-26 293 -57 76 -151 96 -230 48z"/>
</g>
</svg>
